<?xml version="1.0" encoding="UTF-8" standalone="no"?>
<svg xmlns="http://www.w3.org/2000/svg" xmlns:xlink="http://www.w3.org/1999/xlink" width="25.401mm" height="3.058mm" viewBox="-652.701599 496.471832 25.401184 3.058136">
    <path transform="matrix(0.098188,0,0,-0.098188,-626.769958,499.807526)" style="stroke:#ff00ff;stroke-width:0.509225mm;fill:none" d="M-167.463623,3.069164C-167.32251,3.210274,-162.806961,3.28083,-157.409454,3.245552C-151.976669,3.210274,-147.425842,3.316109,-147.143616,3.492496C-146.191116,4.092216,-147.002502,4.938885,-148.519455,4.938885C-150.001114,4.938885,-151.306396,5.432774,-151.800293,6.138329C-151.941406,6.349995,-152.011948,8.713608,-151.976669,11.35944L-151.906128,16.227774L-147.355286,16.227774C-138.288895,16.227774,-134.196671,18.661942,-133.773346,24.376942C-133.561676,27.09333,-134.161392,28.610275,-136.066391,30.515274C-137.301117,31.71472,-138.288895,32.279163,-139.982239,32.808331C-142.063614,33.443333,-143.263062,33.513885,-154.657791,33.513885C-161.4664,33.513885,-167.393066,33.408054,-167.851685,33.302219C-169.121674,32.949444,-168.804184,32.102776,-167.393066,32.102776C-165.876129,32.102776,-164.253342,31.326664,-163.865295,30.444721C-163.441956,29.527496,-163.371399,8.184441,-163.75946,6.491108C-164.07695,5.115273,-164.218063,4.974163,-165.735016,4.586105C-167.74585,4.092216,-168.380844,3.774719,-168.557236,3.245552C-168.698349,2.786942,-167.851685,2.645828,-167.463623,3.069164z"/>
    <path transform="matrix(0.098188,0,0,-0.098188,-626.769958,499.807526)" style="stroke:#ff00ff;stroke-width:0.509225mm;fill:none" d="M-151.694458,23.706663C-151.694458,26.881664,-151.800293,30.056664,-151.906128,30.797497L-152.153061,32.102776L-150.071671,32.102776C-148.766403,32.102776,-147.672791,31.891109,-147.214172,31.573608C-145.485565,30.374165,-144.744736,24.094719,-145.908905,20.672775C-146.579178,18.732496,-147.708069,18.026941,-150.212784,17.991663L-151.694458,17.991663L-151.694458,23.706663z"/>
    <path transform="matrix(0.098188,0,0,-0.098188,-626.769958,499.807526)" style="stroke:#ff00ff;stroke-width:0.509225mm;fill:none" d="M-175.789185,3.42194C-173.284454,4.268608,-171.097229,5.891384,-169.756683,7.937496C-168.663071,9.595552,-168.310287,10.936108,-168.945282,10.936108C-169.121674,10.936108,-169.545013,10.512774,-169.897797,9.94833C-170.850296,8.466663,-171.802795,7.761108,-172.896408,7.761108C-173.813629,7.761108,-174.060562,8.043331,-175.47168,11.006662C-177.376678,15.063608,-178.787796,16.509996,-181.715851,17.497774L-183.938339,18.238607L-182.209732,18.485552C-179.84613,18.838329,-177.482513,20.178886,-176.388901,21.766386C-175.648071,22.859997,-175.506958,23.459719,-175.506958,25.788052C-175.506958,28.292774,-175.577515,28.610275,-176.600571,29.880276C-178.117508,31.749998,-180.057785,32.737774,-183.126953,33.16111C-184.573349,33.337498,-190.81752,33.478607,-197.026398,33.408054L-208.315292,33.337498L-208.244736,32.173332C-208.174179,30.656387,-207.856674,30.338886,-207.22168,31.185555C-206.551407,32.102776,-205.84584,31.467775,-205.351959,29.456942C-204.858063,27.481386,-204.822784,6.561665,-205.316681,5.64444C-205.704742,4.903606,-207.43335,4.23333,-208.87973,4.23333C-209.550018,4.23333,-209.902786,4.056942,-209.902786,3.704163C-209.902786,3.245552,-208.597519,3.174995,-199.425293,3.245552C-190.076675,3.351383,-188.912506,3.42194,-188.806686,3.915829C-188.73613,4.339161,-189.053619,4.550831,-190.147232,4.69194C-190.92334,4.797775,-191.981674,5.150551,-192.475571,5.432774L-193.322235,6.032497L-193.251678,11.747496L-193.145844,17.462496L-191.840561,17.568331C-190.006119,17.709442,-188.877228,16.545275,-188.559738,14.252218C-188.206955,11.324163,-187.007507,7.020275,-186.2314,5.961941C-184.361679,3.351383,-179.563904,2.187218,-175.789185,3.42194z"/>
    <path transform="matrix(0.098188,0,0,-0.098188,-626.769958,499.807526)" style="stroke:#ff00ff;stroke-width:0.509225mm;fill:none" d="M-193.251678,25.470552L-193.145844,31.926388L-191.664185,31.855831C-189.547516,31.785275,-188.806686,31.220831,-187.818909,29.174721C-186.831131,27.058052,-186.725296,24.906109,-187.501404,22.33083C-188.242233,19.790831,-189.053619,19.226385,-192.193344,19.085274L-193.322235,19.049997L-193.251678,25.470552z"/>
    <path transform="matrix(0.098188,0,0,-0.098188,-626.769958,499.807526)" style="stroke:#ff00ff;stroke-width:0.509225mm;fill:none" d="M-69.779449,3.951107C-65.33445,5.64444,-62.829727,8.643051,-62.794449,12.311941C-62.794449,15.063608,-63.429447,16.792219,-65.158058,18.732496C-66.921951,20.672775,-68.968063,21.731108,-74.647781,23.671387C-81.456398,25.964441,-83.255562,27.128609,-83.255562,29.280552C-83.255562,32.384998,-78.246117,33.831387,-74.153893,31.926388C-71.578613,30.726942,-68.297783,27.516665,-67.20417,25.153053C-66.569168,23.741941,-66.181114,23.248053,-65.722504,23.353886C-65.158058,23.459719,-65.087502,24.024164,-64.981674,28.610275C-64.911118,32.949444,-64.981674,33.831387,-65.405006,33.972496C-65.79306,34.113609,-66.145836,33.725555,-66.639725,32.631943C-67.521667,30.621109,-68.191948,30.585831,-72.072502,32.34972C-74.824173,33.584442,-75.176949,33.654999,-78.669449,33.690277C-81.985558,33.690277,-82.550003,33.584442,-84.172783,32.773052C-86.501114,31.573608,-87.312508,30.868053,-88.653061,28.927776C-89.676117,27.481386,-89.781952,27.09333,-89.781952,24.518053C-89.781952,22.048609,-89.640839,21.448885,-88.758896,19.861385C-87.52417,17.603607,-85.866119,16.686386,-78.105003,13.758329C-71.755005,11.35944,-71.225838,11.077219,-70.414452,9.383884C-69.850006,8.219719,-69.850006,8.043331,-70.379173,6.91444C-70.731949,6.208885,-71.437508,5.468052,-72.143059,5.150551C-75.529724,3.527775,-82.197227,5.609161,-84.984169,9.13694C-86.571671,11.147774,-88.123894,13.934719,-88.653061,15.769163C-89.005836,17.039164,-89.323341,17.497774,-89.887787,17.568331C-90.663895,17.674164,-90.663895,17.638885,-90.663895,11.571108C-90.663895,8.219719,-90.76973,5.079994,-90.910843,4.656662C-91.087227,3.951107,-91.01667,3.845272,-90.311119,3.951107C-89.429176,4.056942,-89.041115,4.586105,-88.723618,6.067772C-88.547226,6.91444,-88.370842,7.055553,-87.277229,7.055553C-86.606949,7.055553,-85.407509,6.738052,-84.631393,6.349995C-78.775284,3.351383,-73.51889,2.504719,-69.779449,3.951107z"/>
    <path transform="matrix(0.098188,0,0,-0.098188,-626.769958,499.807526)" style="stroke:#ff00ff;stroke-width:0.509225mm;fill:none" d="M-104.951393,3.88055C-101.564728,4.198051,-99.836121,4.762497,-98.142784,5.997219C-96.414177,7.231941,-95.638062,8.607775,-95.355843,10.865551C-94.826675,15.557497,-97.719452,18.732496,-103.116951,19.296942L-105.304176,19.543886L-102.905281,20.143608C-98.848343,21.166664,-97.366676,22.718885,-97.366676,26.034996C-97.366676,28.469164,-98.036949,29.95083,-99.695007,31.361942C-102.19973,33.408054,-103.081673,33.513885,-118.2864,33.513885C-131.162781,33.513885,-131.974182,33.478607,-131.868347,32.914165C-131.797791,32.420277,-131.268616,32.208611,-129.822235,32.032219C-128.693344,31.891109,-127.740845,31.573608,-127.493896,31.256109C-126.858894,30.338886,-126.647232,25.929165,-126.788345,15.592775C-126.894173,8.960552,-127.070564,5.785553,-127.352783,5.468052C-127.599731,5.185829,-128.340561,4.868328,-129.08139,4.727219C-131.021683,4.409718,-131.586121,4.23333,-131.586121,3.845272C-131.586121,3.492496,-108.796677,3.492496,-104.951393,3.88055z"/>
    <path transform="matrix(0.098188,0,0,-0.098188,-626.769958,499.807526)" style="stroke:#ff00ff;stroke-width:0.509225mm;fill:none" d="M-115.076118,11.465275C-115.146675,16.933331,-115.076118,18.379719,-114.723343,18.52083C-113.911949,18.838329,-111.266121,18.69722,-110.13723,18.309164C-107.950005,17.568331,-106.8564,12.594164,-107.914726,8.219719C-108.161674,7.196663,-108.549728,6.208885,-108.796677,5.997219C-109.608063,5.326939,-111.971672,4.621384,-113.488617,4.621384L-114.970284,4.586105L-115.076118,11.465275z"/>
    <path transform="matrix(0.098188,0,0,-0.098188,-626.769958,499.807526)" style="stroke:#ff00ff;stroke-width:0.509225mm;fill:none" d="M-115.076118,26.105553L-114.970284,32.102776L-113.065285,32.102776C-111.407227,32.102776,-111.089729,31.996943,-110.278343,31.044441C-109.149452,29.66861,-108.690842,27.90472,-108.831955,25.399998C-109.043617,20.990274,-109.784454,20.143608,-113.41806,20.10833L-115.181953,20.10833L-115.076118,26.105553z"/>
    <path transform="matrix(0.098188,0,0,-0.098188,-626.769958,499.807526)" style="stroke:#ff00ff;stroke-width:0.509225mm;fill:none" d="M-212.866119,5.785553C-212.266403,6.067772,-211.666687,6.561665,-211.525574,6.91444C-211.38446,7.302498,-211.278625,12.488329,-211.278625,18.52083C-211.349182,31.820553,-210.961121,30.868053,-216.358627,30.868053C-219.251404,30.868053,-220.239182,30.726942,-221.368073,30.162498C-223.131958,29.280552,-224.366684,27.481386,-224.366684,25.788052C-224.366684,25.047218,-224.543076,24.306387,-224.790009,24.059443C-225.38974,23.459719,-233.644745,23.494997,-235.867233,24.129997C-236.819733,24.376942,-239.606689,25.047218,-242.076126,25.576385C-246.133072,26.423054,-247.12085,26.528885,-251.953903,26.387775C-258.021698,26.246664,-259.573914,25.788052,-261.655304,23.60083C-263.913086,21.201941,-264.759735,17.180275,-263.595581,14.428608C-262.713623,12.382496,-260.385284,10.371662,-258.092255,9.701385C-254.52919,8.643051,-247.967514,9.242773,-239.148071,11.465275C-234.173904,12.735273,-230.116959,13.052774,-226.060013,12.488329L-224.437241,12.276663L-224.225571,10.477497C-223.872787,7.972775,-223.202515,6.879162,-221.438629,6.032497C-219.604187,5.150551,-214.665298,5.009441,-212.866119,5.785553z"/>
    <path transform="matrix(0.098188,0,0,-0.098188,-626.769958,499.807526)" style="stroke:#ff00ff;stroke-width:0.509225mm;fill:none" d="M-258.162781,19.15583C-258.762512,19.543886,-259.326965,21.025553,-259.080017,21.625275C-259.00946,21.872219,-258.445007,22.366108,-257.915863,22.683609C-257.069183,23.177498,-256.010864,23.283331,-252.165573,23.248053C-246.662231,23.212774,-245.286407,23.036386,-238.477798,21.55472C-235.655579,20.954996,-232.198349,20.355274,-230.787231,20.214163C-228.00029,19.967218,-227.506409,19.367496,-229.87001,19.049997C-232.233627,18.732496,-257.668915,18.873608,-258.162781,19.15583z"/>
    <path transform="matrix(0.098188,0,0,-0.098188,-626.769958,499.807526)" style="stroke:#ff00ff;stroke-width:0.509225mm;fill:none" d="M-48.930283,6.138329C-46.496113,7.020275,-45.508335,8.466663,-45.508335,11.112495L-45.508335,12.699997L-40.322502,12.699997C-37.00639,12.699997,-34.466393,12.523607,-33.337502,12.206108C-23.283335,9.419163,-20.002501,8.819441,-15.381112,8.819441C-12.735279,8.819441,-11.853334,8.960552,-10.406945,9.666107C-8.11389,10.724442,-6.949723,11.818052,-5.997222,13.723053C-5.326945,15.063608,-5.256389,15.628052,-5.468056,17.427219C-5.750278,20.10833,-6.632223,22.083885,-8.149167,23.530275C-10.124722,25.399998,-11.853334,25.858608,-17.815279,25.99972C-22.965836,26.176109,-24.235834,26.034996,-30.868057,24.694443C-35.983337,23.671387,-36.653614,23.60083,-40.569447,23.883053L-44.626392,24.165276L-44.80278,25.752775C-45.049725,27.90472,-46.355003,29.95083,-47.942505,30.621109C-48.683338,30.903332,-50.729446,31.220831,-52.74028,31.326664C-55.915283,31.467775,-56.373894,31.397221,-57.150005,30.762218L-58.031948,30.056664L-58.349449,19.226385C-58.66695,7.72583,-58.596394,6.949718,-57.079449,6.385273C-55.456669,5.785553,-50.341393,5.609161,-48.930283,6.138329z"/>
    <path transform="matrix(0.098188,0,0,-0.098188,-626.769958,499.807526)" style="stroke:#ff00ff;stroke-width:0.509225mm;fill:none" d="M-31.891113,20.566942C-32.56139,20.884441,-32.56139,20.91972,-31.78528,21.55472C-31.32667,21.942776,-30.51528,22.224997,-29.950836,22.224997C-29.421669,22.224997,-28.045835,22.471941,-26.916946,22.754164C-24.341669,23.424442,-19.649723,23.424442,-17.427223,22.754164C-16.474724,22.471941,-14.816668,22.224997,-13.758334,22.224997C-11.535834,22.224997,-10.830278,21.872219,-11.006667,20.954996C-11.077223,20.496386,-11.535834,20.214163,-12.523612,20.073053C-14.640279,19.720274,-31.115002,20.143608,-31.891113,20.566942z"/>
</svg>
